<svg version="1.1" viewBox="0.0 0.0 1000.0 100.0" fill="none" stroke="none" stroke-linecap="square" stroke-miterlimit="10" xmlns:xlink="http://www.w3.org/1999/xlink" xmlns="http://www.w3.org/2000/svg"><clipPath id="p.0"><path d="m0 0l1000.0 0l0 100.0l-1000.0 0l0 -100.0z" clip-rule="nonzero"/></clipPath><g clip-path="url(#p.0)"><path fill="#000000" fill-opacity="0.0" d="m0 0l1000.0 0l0 100.0l-1000.0 0z" fill-rule="evenodd"/><path fill="#000000" fill-opacity="0.0" d="m124.8 105.6632l0 0c0 -68.05714 343.29535 -123.22835 766.77167 -123.22835l0 0c423.47632 0 766.7716 55.171207 766.7716 123.22835l0 0c0 68.05714 -343.2953 123.228355 -766.7716 123.228355l0 0c-423.4763 0 -766.77167 -55.17122 -766.77167 -123.228355z" fill-rule="evenodd"/><path stroke="#3576ba" stroke-width="8.0" stroke-linejoin="round" stroke-linecap="butt" d="m124.8 105.6632l0 0c0 -68.05714 343.29535 -123.22835 766.77167 -123.22835l0 0c423.47632 0 766.7716 55.171207 766.7716 123.22835l0 0c0 68.05714 -343.2953 123.228355 -766.7716 123.228355l0 0c-423.4763 0 -766.77167 -55.17122 -766.77167 -123.228355z" fill-rule="evenodd"/><path fill="#000000" fill-opacity="0.0" d="m124.8 105.6632l0 0c0 -30.827759 80.78464 -60.3929 224.58223 -82.19142c143.79758 -21.79852 338.82895 -34.0448 542.18945 -34.0448l0 0c423.47632 0 766.7716 52.040726 766.7716 116.23622l0 0c0 64.19549 -343.2953 116.23623 -766.7716 116.23623l0 0c-423.4763 0 -766.77167 -52.04074 -766.77167 -116.23623z" fill-rule="evenodd"/><path stroke="#3576ba" stroke-width="8.0" stroke-linejoin="round" stroke-linecap="butt" d="m124.8 105.6632l0 0c0 -30.827759 80.78464 -60.3929 224.58223 -82.19142c143.79758 -21.79852 338.82895 -34.0448 542.18945 -34.0448l0 0c423.47632 0 766.7716 52.040726 766.7716 116.23622l0 0c0 64.19549 -343.2953 116.23623 -766.7716 116.23623l0 0c-423.4763 0 -766.77167 -52.04074 -766.77167 -116.23623z" fill-rule="evenodd"/><path fill="#000000" fill-opacity="0.0" d="m159.72914 105.6632l0 0c0 -17.11586 77.104614 -33.5307 214.3517 -45.633442c137.2471 -12.102741 323.39413 -18.901989 517.49084 -18.901989l0 0c404.18542 0 731.8425 28.893494 731.8425 64.53543l0 0c0 35.64193 -327.6571 64.53544 -731.8425 64.53544l0 0c-404.18546 0 -731.8425 -28.893509 -731.8425 -64.53544z" fill-rule="evenodd"/><path stroke="#00233f" stroke-width="8.0" stroke-linejoin="round" stroke-linecap="butt" d="m159.72914 105.6632l0 0c0 -17.11586 77.104614 -33.5307 214.3517 -45.633442c137.2471 -12.102741 323.39413 -18.901989 517.49084 -18.901989l0 0c404.18542 0 731.8425 28.893494 731.8425 64.53543l0 0c0 35.64193 -327.6571 64.53544 -731.8425 64.53544l0 0c-404.18546 0 -731.8425 -28.893509 -731.8425 -64.53544z" fill-rule="evenodd"/><path fill="#000000" fill-opacity="0.0" d="m159.72914 105.6632l0 0c0 -18.915993 77.104614 -37.057236 214.3517 -50.432858c137.2471 -13.375626 323.39413 -20.889977 517.49084 -20.889977l0 0c404.18542 0 731.8425 31.932323 731.8425 71.32283l0 0c0 39.39051 -327.6571 71.32284 -731.8425 71.32284l0 0c-404.18546 0 -731.8425 -31.932327 -731.8425 -71.32284z" fill-rule="evenodd"/><path stroke="#00233f" stroke-width="8.0" stroke-linejoin="round" stroke-linecap="butt" d="m159.72914 105.6632l0 0c0 -18.915993 77.104614 -37.057236 214.3517 -50.432858c137.2471 -13.375626 323.39413 -20.889977 517.49084 -20.889977l0 0c404.18542 0 731.8425 31.932323 731.8425 71.32283l0 0c0 39.39051 -327.6571 71.32284 -731.8425 71.32284l0 0c-404.18546 0 -731.8425 -31.932327 -731.8425 -71.32284z" fill-rule="evenodd"/><path fill="#000000" fill-opacity="0.0" d="m159.72914 105.6632l0 0c0 -20.315163 77.104614 -39.79827 214.3517 -54.163265c137.2471 -14.36499 323.39413 -22.435158 517.49084 -22.435158l0 0c404.18542 0 731.8425 34.29428 731.8425 76.59842l0 0c0 42.304146 -327.6571 76.59843 -731.8425 76.59843l0 0c-404.18546 0 -731.8425 -34.29428 -731.8425 -76.59843z" fill-rule="evenodd"/><path stroke="#00233f" stroke-width="8.0" stroke-linejoin="round" stroke-linecap="butt" d="m159.72914 105.6632l0 0c0 -20.315163 77.104614 -39.79827 214.3517 -54.163265c137.2471 -14.36499 323.39413 -22.435158 517.49084 -22.435158l0 0c404.18542 0 731.8425 34.29428 731.8425 76.59842l0 0c0 42.304146 -327.6571 76.59843 -731.8425 76.59843l0 0c-404.18546 0 -731.8425 -34.29428 -731.8425 -76.59843z" fill-rule="evenodd"/><path fill="#000000" fill-opacity="0.0" d="m159.72914 104.0569c0 -21.58068 77.104614 -42.27748 214.3517 -57.53733c137.2471 -15.259851 323.39413 -23.832745 517.49084 -23.832745l0 0c404.18542 0 731.8425 36.430626 731.8425 81.37007l0 0c0 44.939453 -327.6571 81.37009 -731.8425 81.37009l0 0c-404.18546 0 -731.8425 -36.430634 -731.8425 -81.37009z" fill-rule="evenodd"/><path stroke="#00233f" stroke-width="8.0" stroke-linejoin="round" stroke-linecap="butt" d="m159.72914 104.0569c0 -21.58068 77.104614 -42.27748 214.3517 -57.53733c137.2471 -15.259851 323.39413 -23.832745 517.49084 -23.832745l0 0c404.18542 0 731.8425 36.430626 731.8425 81.37007l0 0c0 44.939453 -327.6571 81.37009 -731.8425 81.37009l0 0c-404.18546 0 -731.8425 -36.430634 -731.8425 -81.37009z" fill-rule="evenodd"/><path fill="#000000" fill-opacity="0.0" d="m159.72914 104.0569l0 0c0 -23.167809 77.104614 -45.386723 214.3517 -61.768837c137.2471 -16.382114 323.39413 -25.585491 517.49084 -25.585491l0 0c404.18542 0 731.8425 39.109867 731.8425 87.354324l0 0c0 48.24446 -327.6571 87.35434 -731.8425 87.35434l0 0c-404.18546 0 -731.8425 -39.10988 -731.8425 -87.35434z" fill-rule="evenodd"/><path stroke="#00233f" stroke-width="8.0" stroke-linejoin="round" stroke-linecap="butt" d="m159.72914 104.0569l0 0c0 -23.167809 77.104614 -45.386723 214.3517 -61.768837c137.2471 -16.382114 323.39413 -25.585491 517.49084 -25.585491l0 0c404.18542 0 731.8425 39.109867 731.8425 87.354324l0 0c0 48.24446 -327.6571 87.35434 -731.8425 87.35434l0 0c-404.18546 0 -731.8425 -39.10988 -731.8425 -87.35434z" fill-rule="evenodd"/><path fill="#000000" fill-opacity="0.0" d="m159.72966 105.66404l0 0c0 -15.938049 77.104614 -31.223312 214.3517 -42.493217c137.2471 -11.269901 323.3941 -17.601269 517.49084 -17.601269l0 0c404.1855 0 731.84247 26.905216 731.84247 60.094486l0 0c0 33.189278 -327.65698 60.09449 -731.84247 60.09449l0 0c-404.1855 0 -731.8425 -26.905212 -731.8425 -60.09449z" fill-rule="evenodd"/><path stroke="#00233f" stroke-width="8.0" stroke-linejoin="round" stroke-linecap="butt" d="m159.72966 105.66404l0 0c0 -15.938049 77.104614 -31.223312 214.3517 -42.493217c137.2471 -11.269901 323.3941 -17.601269 517.49084 -17.601269l0 0c404.1855 0 731.84247 26.905216 731.84247 60.094486l0 0c0 33.189278 -327.65698 60.09449 -731.84247 60.09449l0 0c-404.1855 0 -731.8425 -26.905212 -731.8425 -60.09449z" fill-rule="evenodd"/></g></svg>